<svg width="100" height="32" viewBox="0 0 100 32" fill="none" xmlns="http://www.w3.org/2000/svg">
<rect width="100" height="32" rx="6" fill="black" fill-opacity="0.8"/>
<path d="M67.9263 11.18V13.0745H66.7388V14.3169H67.9263V18.5383C67.9263 19.9798 68.5784 20.5564 70.2189 20.5564C70.5072 20.5564 70.7818 20.522 71.022 20.4809V19.2522C70.8161 19.2728 70.6857 19.2865 70.4592 19.2865C69.7247 19.2865 69.4021 18.9433 69.4021 18.1608V14.3169H71.022V13.0745H69.4021V11.18H67.9263Z" fill="white"/>
<path d="M75.2012 20.6593C77.384 20.6593 78.7225 19.1973 78.7225 16.7742C78.7225 14.3649 77.3771 12.896 75.2012 12.896C73.0184 12.896 71.673 14.3649 71.673 16.7742C71.673 19.1973 73.0115 20.6593 75.2012 20.6593ZM75.2012 19.3483C73.9176 19.3483 73.1969 18.4079 73.1969 16.7742C73.1969 15.1543 73.9176 14.207 75.2012 14.207C76.4779 14.207 77.2055 15.1543 77.2055 16.7742C77.2055 18.401 76.4779 19.3483 75.2012 19.3483Z" fill="white"/>
<path d="M79.8677 20.5152H81.3435V16.1015C81.3435 15.0513 82.1329 14.3443 83.2517 14.3443C83.5126 14.3443 83.9519 14.3924 84.0754 14.4336V12.9784C83.9175 12.9372 83.6361 12.9166 83.4165 12.9166C82.4417 12.9166 81.6112 13.452 81.3984 14.1865H81.2886V13.0401H79.8677V20.5152Z" fill="white"/>
<path d="M87.7398 14.1521C88.8312 14.1521 89.545 14.9141 89.5793 16.0878H85.8041C85.8864 14.9209 86.6484 14.1521 87.7398 14.1521ZM89.5725 18.4971C89.2979 19.0806 88.687 19.4032 87.7947 19.4032C86.614 19.4032 85.8521 18.5726 85.8041 17.2616V17.1792H91.0826V16.6644C91.0826 14.3169 89.8265 12.896 87.7466 12.896C85.6393 12.896 84.3008 14.413 84.3008 16.8017C84.3008 19.1904 85.6119 20.6593 87.7535 20.6593C89.4627 20.6593 90.657 19.8356 90.9934 18.4971H89.5725Z" fill="white"/>
<path d="M58.2483 17.7548C58.3622 19.5903 59.8918 20.7642 62.1684 20.7642C64.6015 20.7642 66.124 19.5334 66.124 17.5698C66.124 16.026 65.2561 15.1722 63.1502 14.6813L62.019 14.4039C60.6815 14.0908 60.1408 13.6711 60.1408 12.9383C60.1408 12.0134 60.9803 11.4087 62.2395 11.4087C63.4348 11.4087 64.26 11.9992 64.4095 12.9454H65.9604C65.8679 11.2166 64.3454 10 62.2609 10C60.0198 10 58.5258 11.2166 58.5258 13.045C58.5258 14.5533 59.3724 15.4497 61.2293 15.8837L62.5526 16.2038C63.9114 16.524 64.5091 16.9935 64.5091 17.7761C64.5091 18.6868 63.5699 19.3484 62.2893 19.3484C60.9162 19.3484 59.9629 18.7295 59.8277 17.7548H58.2483Z" fill="white"/>
<path d="M42.9607 12.9166C41.9448 12.9166 41.0662 13.4245 40.6131 14.2757H40.5033V13.0401H39.0824V23H40.5582V19.3826H40.6749C41.0662 20.172 41.9105 20.6387 42.9744 20.6387C44.862 20.6387 46.0633 19.1492 46.0633 16.7742C46.0633 14.3992 44.862 12.9166 42.9607 12.9166ZM42.542 19.314C41.3064 19.314 40.5308 18.3393 40.5308 16.7811C40.5308 15.2161 41.3064 14.2414 42.5488 14.2414C43.7981 14.2414 44.5463 15.1955 44.5463 16.7742C44.5463 18.3598 43.7981 19.314 42.542 19.314Z" fill="white"/>
<path d="M51.2273 12.9166C50.2114 12.9166 49.3328 13.4245 48.8797 14.2757H48.7699V13.0401H47.349V23H48.8248V19.3826H48.9415C49.3328 20.172 50.1771 20.6387 51.241 20.6387C53.1286 20.6387 54.3299 19.1492 54.3299 16.7742C54.3299 14.3992 53.1286 12.9166 51.2273 12.9166ZM50.8086 19.314C49.573 19.314 48.7974 18.3393 48.7974 16.7811C48.7974 15.2161 49.573 14.2414 50.8154 14.2414C52.0647 14.2414 52.8129 15.1955 52.8129 16.7742C52.8129 18.3598 52.0647 19.314 50.8086 19.314Z" fill="white"/>
<path d="M36.4346 20.5152H38.1279L34.4212 10.249H32.7066L29 20.5152H30.6363L31.5826 17.7903H35.4955L36.4346 20.5152ZM33.4821 12.113H33.6031L35.09 16.4528H31.9881L33.4821 12.113Z" fill="white"/>
<path d="M21.5284 16.5723C21.5467 15.1828 22.3111 13.868 23.5236 13.1402C22.7587 12.0737 21.4774 11.3974 20.1444 11.3567C18.7227 11.211 17.3443 12.1873 16.6198 12.1873C15.8813 12.1873 14.7658 11.3712 13.5646 11.3953C11.9989 11.4447 10.5393 12.3138 9.77757 13.6502C8.14012 16.418 9.36151 20.4857 10.9301 22.723C11.7148 23.8185 12.632 25.0423 13.8321 24.9989C15.0065 24.9513 15.4451 24.2678 16.8627 24.2678C18.2671 24.2678 18.6786 24.9989 19.903 24.9713C21.1632 24.9513 21.9572 23.8709 22.7144 22.765C23.2783 21.9844 23.7122 21.1216 24 20.2087C22.5191 19.5972 21.5301 18.1422 21.5284 16.5723Z" fill="white"/>
<path d="M19.2156 9.88535C19.9027 9.08007 20.2412 8.04502 20.1592 7C19.1095 7.10764 18.1398 7.59745 17.4434 8.37184C16.7625 9.12845 16.4081 10.1453 16.4751 11.1504C17.5252 11.1609 18.5575 10.6844 19.2156 9.88535Z" fill="white"/>
</svg>
