<svg width="110" height="32" viewBox="0 0 110 32" fill="none" xmlns="http://www.w3.org/2000/svg">
<rect width="110" height="32" rx="6" fill="black" fill-opacity="0.8"/>
<path d="M54.2498 13.8671C52.3183 13.8671 50.7441 15.3378 50.7441 17.3634C50.7441 19.3766 52.3183 20.8597 54.2498 20.8597C56.1821 20.8597 57.7564 19.3766 57.7564 17.3634C57.7556 15.3378 56.1813 13.8671 54.2498 13.8671ZM54.2498 19.4835C53.1913 19.4835 52.2789 18.6096 52.2789 17.3642C52.2789 16.1056 53.1921 15.2449 54.2498 15.2449C55.3084 15.2449 56.2207 16.1056 56.2207 17.3642C56.2207 18.6088 55.3084 19.4835 54.2498 19.4835ZM46.6011 13.8671C44.6696 13.8671 43.0954 15.3378 43.0954 17.3634C43.0954 19.3766 44.6696 20.8597 46.6011 20.8597C48.5334 20.8597 50.1077 19.3766 50.1077 17.3634C50.1077 15.3378 48.5334 13.8671 46.6011 13.8671ZM46.6011 19.4835C45.5425 19.4835 44.6302 18.6096 44.6302 17.3642C44.6302 16.1056 45.5434 15.2449 46.6011 15.2449C47.6596 15.2449 48.572 16.1056 48.572 17.3642C48.5728 18.6088 47.6596 19.4835 46.6011 19.4835ZM37.5037 14.9407V16.4237H41.0497C40.9438 17.2581 40.6662 17.8673 40.2425 18.2907C39.7267 18.8069 38.9195 19.3766 37.5037 19.3766C35.321 19.3766 33.6145 17.6149 33.6145 15.4298C33.6145 13.2447 35.321 11.483 37.5037 11.483C38.6814 11.483 39.5412 11.9467 40.176 12.5427L41.2214 11.4962C40.3344 10.6486 39.1577 10 37.5037 10C34.5137 10 32 12.4366 32 15.4298C32 18.423 34.5137 20.8597 37.5037 20.8597C39.1174 20.8597 40.3353 20.3294 41.287 19.3363C42.2659 18.3564 42.5706 16.9786 42.5706 15.8664C42.5706 15.5227 42.5443 15.2046 42.4909 14.9399H37.5037V14.9407ZM74.7111 16.0924C74.4203 15.3115 73.5334 13.8671 71.721 13.8671C69.9218 13.8671 68.4263 15.2843 68.4263 17.3634C68.4263 19.3232 69.9086 20.8597 71.8927 20.8597C73.4932 20.8597 74.4195 19.8797 74.8039 19.31L73.6131 18.5151C73.2165 19.0979 72.6736 19.4819 71.8927 19.4819C71.1125 19.4819 70.5566 19.1243 70.1993 18.4222L74.8696 16.4887L74.7111 16.0924ZM69.948 17.2581C69.9086 15.9066 70.9934 15.2186 71.7744 15.2186C72.3829 15.2186 72.8986 15.5235 73.0711 15.9601L69.948 17.2581ZM66.1516 20.6484H67.6856V10.3716H66.1516V20.6484ZM63.6371 14.6489H63.5845C63.2404 14.2378 62.5785 13.8671 61.7458 13.8671C59.9991 13.8671 58.3986 15.4035 58.3986 17.3773C58.3986 19.3372 59.9991 20.8605 61.7458 20.8605C62.5793 20.8605 63.2404 20.4897 63.5845 20.0664H63.6371V20.5695C63.6371 21.907 62.9226 22.6222 61.7721 22.6222C60.8326 22.6222 60.2504 21.9473 60.0122 21.3776L58.6761 21.9341C59.0596 22.8606 60.0779 24 61.7721 24C63.5714 24 65.0931 22.9403 65.0931 20.3574V14.08H63.6379V14.6489H63.6371ZM61.878 19.4835C60.8195 19.4835 59.9334 18.5957 59.9334 17.3773C59.9334 16.145 60.8195 15.2449 61.878 15.2449C62.9226 15.2449 63.743 16.145 63.743 17.3773C63.743 18.5957 62.9226 19.4835 61.878 19.4835ZM81.8999 10.3716H78.2283V20.6484H79.7598V16.755H81.8991C83.5974 16.755 85.2677 15.5244 85.2677 13.5637C85.2677 11.6031 83.5982 10.3716 81.8999 10.3716ZM81.9393 15.3246H79.7598V11.802H81.9393C83.0849 11.802 83.7353 12.7515 83.7353 13.5637C83.7353 14.3595 83.0849 15.3246 81.9393 15.3246ZM91.4095 13.849C90.3001 13.849 89.1512 14.3381 88.6757 15.4224L90.0356 15.9905C90.3263 15.4224 90.8683 15.2366 91.4358 15.2366C92.2283 15.2366 93.0339 15.7126 93.047 16.5585V16.6646C92.7694 16.5059 92.1749 16.2684 91.4489 16.2684C89.9831 16.2684 88.4901 17.0748 88.4901 18.5817C88.4901 19.957 89.6924 20.8424 91.0391 20.8424C92.0689 20.8424 92.6372 20.3796 92.9936 19.837H93.0462V20.6303H94.526V16.6901C94.5268 14.8667 93.1653 13.849 91.4095 13.849ZM91.2239 19.481C90.723 19.481 90.0225 19.2295 90.0225 18.608C90.0225 17.8147 90.8946 17.5105 91.6477 17.5105C92.3202 17.5105 92.638 17.656 93.047 17.8541C92.9279 18.8069 92.1092 19.481 91.2239 19.481ZM99.9148 14.0734L98.1582 18.5291H98.1056L96.2826 14.0734H94.6319L97.3657 20.3006L95.8071 23.7649H97.4052L101.619 14.0734H99.9148ZM86.1135 20.6484H87.6451V10.3716H86.1135V20.6484Z" fill="white"/>
<path fill-rule="evenodd" clip-rule="evenodd" d="M9.09885 6.75422C9.03477 6.93949 9 7.15616 9 7.40126V24.5983C9 24.8438 9.0348 25.0606 9.09893 25.2458L18.3676 15.9994L9.09885 6.75422ZM9.8005 25.9584C10.1305 26.053 10.5394 25.9887 10.9809 25.739L21.9174 19.5401L19.0756 16.7056L9.8005 25.9584ZM22.8208 19.0289L26.1832 17.1234C27.2723 16.5052 27.2723 15.4951 26.1832 14.8777L22.8192 12.971L19.7836 15.9993L22.8208 19.0289ZM21.9162 12.4593L10.9809 6.26133C10.5394 6.01107 10.1305 5.94692 9.80053 6.0417L19.0756 15.2931L21.9162 12.4593Z" fill="white"/>
</svg>
