<svg width="94" height="32" viewBox="0 0 94 32" fill="none" xmlns="http://www.w3.org/2000/svg">
<path fill-rule="evenodd" clip-rule="evenodd" d="M75.6301 7.10939C75.3347 7.08279 69.3243 7.0903 69.1247 7.11971C68.9302 7.66892 68.7595 8.23502 68.5746 8.79643C68.3914 9.3519 68.2147 9.90924 68.0343 10.4656C67.8513 11.0292 67.6662 11.5925 67.4832 12.1561C67.3003 12.72 67.1192 13.2843 66.9363 13.8479C66.7559 14.4043 66.5739 14.9601 66.3934 15.5161C66.2105 16.0791 66.0288 16.6424 65.8455 17.2088C65.745 17.1653 65.7522 17.0721 65.7293 17.0029C65.1059 15.1115 64.4863 13.2189 63.8664 11.3265C63.4335 10.0047 63.0018 8.68252 62.5685 7.3613C62.5397 7.27305 62.5015 7.18825 62.468 7.10313C62.4129 7.1 62.3734 7.09562 62.3342 7.09593C58.0495 7.09718 53.7644 7.09906 49.4797 7.10125C49.4722 7.10125 49.4647 7.10626 49.4575 7.1097C49.4509 7.11283 49.4443 7.11721 49.428 7.1266C49.4111 7.17855 49.3889 7.23738 49.3726 7.29809C48.7226 9.70927 48.0735 12.1205 47.4238 14.5316C47.1876 15.4091 46.9511 16.2866 46.7133 17.1638C46.6999 17.2138 46.6757 17.2611 46.6447 17.3396C46.6074 17.2417 46.5811 17.1769 46.5579 17.1112C46.1141 15.8516 45.6705 14.5917 45.2269 13.3318C44.529 11.3491 43.8314 9.36598 43.1312 7.38383C43.098 7.28933 43.0842 7.18324 42.9968 7.09593C40.8498 7.09593 38.6961 7.09593 36.5425 7.09656C36.5127 7.09656 36.4836 7.10594 36.4494 7.11189C36.4303 7.22204 36.4927 7.30153 36.5278 7.38602C38.7713 12.788 40.8404 17.7658 43.0855 23.1672L43.108 23.2216C43.4821 24.1257 43.1854 25.1681 42.391 25.7398C42.1561 25.9285 42.0737 25.9454 41.782 26.0603C41.3519 26.2292 40.9024 26.3125 40.4454 26.3657C40.0751 26.4089 39.7032 26.4164 39.3311 26.4223C39.2778 26.423 39.2246 26.4348 39.1751 26.4411C39.1447 26.6235 39.1331 29.2519 39.1503 31.742C39.1507 31.8117 39.1576 31.8812 39.1619 31.9632C39.3439 31.9898 39.5169 31.9967 39.6895 31.9986C40.2599 32.0058 40.8285 31.9763 41.397 31.9231C42.0918 31.8581 42.7744 31.7319 43.4439 31.5357C44.7658 31.1483 45.9336 30.4927 46.9317 29.5398C47.5889 28.9124 48.1352 28.1976 48.6001 27.419C49.1339 26.5265 49.5496 25.5793 49.891 24.5988C51.2058 20.822 52.5199 17.0452 53.8343 13.2683C54.5122 11.3203 55.1904 9.37192 55.8692 7.4242C55.8905 7.36224 55.9181 7.30216 55.9563 7.20796C56.002 7.31405 56.0356 7.38415 56.0628 7.45706C57.7143 11.8435 62.5729 24.8019 62.6478 24.8702H68.9844C69.0242 24.7691 75.3022 8.10609 75.5832 7.35066C75.611 7.27493 75.6752 7.20014 75.6301 7.10939ZM15.9588 13.4004C15.8234 14.5436 15.4585 15.602 14.7593 16.5292C13.8975 17.672 12.7275 18.3549 11.2897 18.6237C10.9022 18.6966 10.5065 18.7201 10.1118 18.7198C9.01792 18.7188 7.92402 18.7194 6.83012 18.7198H6.58484C6.55822 18.5179 6.54068 6.62285 6.56292 6.25421C6.5648 6.22416 6.57545 6.19475 6.58453 6.15563C6.65251 6.15062 6.71391 6.1428 6.7753 6.1428C7.89959 6.14186 9.02418 6.13591 10.1488 6.14436C11.0604 6.15125 11.9422 6.31492 12.7698 6.71266C14.113 7.35825 15.0274 8.41128 15.5659 9.81168C15.7479 10.2852 15.8673 10.7821 15.9356 11.2847C16.0308 11.9913 16.0421 12.6963 15.9588 13.4004ZM21.2728 7.398C20.4355 5.38174 19.1662 3.69188 17.4141 2.38004C15.3279 0.818173 12.9706 0.0245632 10.3665 0.00985511C6.99332 -0.00860821 3.61985 0.00453517 0.246696 0.00453517C0.17684 0.00453517 0.10667 0.0107939 0.0380667 0.0139233C-0.0170667 0.139411 0.00392159 0.259579 0.00392159 0.375992C0.00266856 8.42099 0.00298182 16.466 0.00298182 24.511C0.00298182 24.5902 0.00141553 24.6693 0.00642765 24.7482C0.00862045 24.7854 0.0255364 24.8217 0.0396329 24.8727C0.138936 24.8746 0.2326 24.8778 0.326264 24.8778C3.50959 24.8781 6.6926 24.8781 9.87623 24.8781C10.4066 24.8784 10.9357 24.8508 11.4641 24.8011C12.0568 24.7454 12.6461 24.6459 13.2218 24.4938C16.2275 23.7017 18.5867 22.0053 20.2714 19.3932C21.4627 17.5459 22.0798 15.5037 22.2201 13.3182C22.2825 12.3462 22.2465 11.3745 22.0989 10.4078C21.9407 9.37138 21.6751 8.36591 21.2728 7.398ZM87.4167 13.8647C85.2082 13.8654 82.9995 13.8654 80.7803 13.8654C80.7803 13.8222 80.7728 13.7902 80.7816 13.7636C81.1431 12.6834 81.8507 11.8938 83.0524 11.5318C83.319 11.4517 83.5975 11.41 83.875 11.3969C84.8132 11.3531 85.727 11.4632 86.6029 12.2418C86.8481 12.4596 87.043 12.7291 87.1962 13.0185C87.334 13.2798 87.4496 13.5483 87.516 13.8488C87.4753 13.8557 87.4458 13.8647 87.4167 13.8647ZM90.8623 9.20152C89.2114 7.45626 87.1543 6.58004 84.7782 6.42263C84.0919 6.37694 83.4027 6.4001 82.717 6.4993C82.1287 6.58442 81.5498 6.70396 80.9856 6.88985C78.8658 7.58832 77.2055 8.87418 76.0452 10.7844C75.138 12.278 74.7233 13.9237 74.6894 15.6753C74.6719 16.5881 74.7759 17.5037 75.0143 18.385C75.674 20.8243 77.0971 22.6729 79.309 23.8961C80.8136 24.7282 82.446 25.094 84.1517 25.1588C84.9593 25.1895 85.765 25.1507 86.566 25.0271C87.4064 24.8972 88.2209 24.6832 89.0034 24.3527C90.2577 23.8223 91.3287 23.0431 92.1974 21.9913C92.23 21.9515 92.2544 21.9049 92.2813 21.8636C92.0511 21.6664 88.1843 18.9711 88.0176 18.8919C87.9559 18.9445 87.8904 19.0008 87.8243 19.0562C87.08 19.683 86.2183 20.0154 85.2512 20.0946C84.9023 20.1234 84.5558 20.1143 84.2078 20.0933C83.747 20.0658 83.2965 19.9891 82.8595 19.8433C81.9852 19.5519 81.3267 19.0062 80.9192 18.1722C80.8888 18.1102 80.8675 18.0439 80.8318 17.9538C81.3048 17.9469 81.7534 17.9513 82.202 17.9506C82.6531 17.9497 83.1042 17.9503 83.5559 17.9503H84.9098H86.264H87.6182H88.9721H90.3263H91.6802H93.0448C93.0645 17.8905 93.0755 17.8614 93.0836 17.8317C93.2333 17.2631 93.3113 16.6857 93.3279 16.098C93.3574 15.0638 93.2571 14.0449 92.984 13.0453C92.5874 11.5933 91.9001 10.2984 90.8623 9.20152ZM29.6619 7.10474C26.4181 7.10474 23.7883 9.73153 23.7883 12.9723V24.6934H29.6619V14.4578C29.6619 13.3594 30.5531 12.4691 31.6523 12.4691H35.001V7.10474H29.6619Z" fill="#0065FF"/>
</svg>
