<svg width="24" height="24" viewBox="0 0 24 24" fill="none" xmlns="http://www.w3.org/2000/svg">
<path d="M10.3365 3.15613C8.29509 3.53886 6.44919 4.6167 5.11255 6.20646" stroke="#0065FF" stroke-width="1.5" stroke-linecap="round" stroke-linejoin="round"/>
<path d="M3.4897 9.08057C2.81548 11.0172 2.83273 13.1275 3.53853 15.0528" stroke="#0065FF" stroke-width="1.5" stroke-linecap="round" stroke-linejoin="round"/>
<path d="M5.20886 17.8995C6.53684 19.4315 8.34401 20.4692 10.3365 20.8439" stroke="#0065FF" stroke-width="1.5" stroke-linecap="round" stroke-linejoin="round"/>
<path d="M13.6371 3.1521C17.9054 3.93838 21.0039 7.65983 21.0039 12C21.0039 16.3401 17.9054 20.0616 13.6371 20.8478" stroke="#0065FF" stroke-width="1.5" stroke-linecap="round" stroke-linejoin="round"/>
<path fill-rule="evenodd" clip-rule="evenodd" d="M10.9406 9.05674L14.8242 11.3537C15.0525 11.4887 15.1926 11.7342 15.1926 11.9995C15.1926 12.2647 15.0525 12.5102 14.8242 12.6452L10.9406 14.9422C10.7085 15.0794 10.4207 15.0816 10.1866 14.948C9.95251 14.8144 9.80802 14.5655 9.80811 14.2959V9.70301C9.80802 9.43345 9.95251 9.18455 10.1866 9.05094C10.4207 8.91734 10.7085 8.91955 10.9406 9.05674V9.05674Z" stroke="#0065FF" stroke-width="1.5" stroke-linecap="round" stroke-linejoin="round"/>
</svg>
