<svg width="40" height="40" viewBox="0 0 40 40" fill="none" xmlns="http://www.w3.org/2000/svg">
<path d="M20.8333 12.0829C20.8333 11.3926 20.2737 10.8329 19.5833 10.8329C18.893 10.8329 18.3333 11.3926 18.3333 12.0829V12.507C16.4715 12.6385 15 14.1901 15 16.0879C15 17.735 16.1229 19.1694 17.7164 19.5688L20.839 20.3533C21.3269 20.4772 21.6667 20.9151 21.6667 21.4129C21.6667 22.0148 21.1791 22.5029 20.5767 22.5029H19.6759C19.6453 22.5007 19.6145 22.4996 19.5833 22.4996C19.5522 22.4996 19.5214 22.5007 19.4908 22.5029H18.75C18.3508 22.5029 17.9927 22.2926 17.7567 21.9063C17.3969 21.3172 16.6275 21.1313 16.0384 21.4912C15.4493 21.8511 15.2634 22.6204 15.6233 23.2096C16.1864 24.1314 17.1425 24.8432 18.3333 24.9794V25.4162C18.3333 26.1066 18.893 26.6662 19.5833 26.6662C20.2737 26.6662 20.8333 26.1066 20.8333 25.4162V24.9939C22.6976 24.8623 24.1667 23.3082 24.1667 21.4129C24.1667 19.7644 23.0436 18.3326 21.4518 17.9295L18.3236 17.1437C17.8409 17.0228 17.5 16.5872 17.5 16.0879C17.5 15.4855 17.9881 14.9979 18.59 14.9979H19.519C19.5403 14.999 19.5618 14.9996 19.5833 14.9996C19.6049 14.9996 19.6264 14.999 19.6477 14.9979H20.4167C20.8138 14.9979 21.1711 15.2078 21.4045 15.5905C21.764 16.1799 22.5332 16.3663 23.1226 16.0068C23.7119 15.6473 23.8983 14.8781 23.5388 14.2887C22.9766 13.367 22.0204 12.6576 20.8333 12.5216V12.0829Z" fill="#0065FF"/>
<path fill-rule="evenodd" clip-rule="evenodd" d="M16.1816 4.00267C18.3617 3.11019 20.805 3.11019 22.9851 4.00267L31.3188 7.41283C33.041 8.11819 34.1667 9.79313 34.1667 11.6546V18.2196C34.1667 26.3872 28.0586 33.9591 19.8575 35.8025C19.677 35.843 19.4897 35.843 19.3092 35.8025C11.1081 33.9591 5 26.3872 5 18.2196V11.6546C5 9.79424 6.12514 8.1163 7.84921 7.41229L16.1816 4.00267ZM17.1286 6.31637C18.7018 5.6723 20.4649 5.6723 22.0381 6.31637L30.3716 9.72645C31.1559 10.0478 31.6667 10.8095 31.6667 11.6546V18.2196C31.6667 25.0984 26.5335 31.5997 19.5833 33.299C12.6332 31.5997 7.5 25.0984 7.5 18.2196V11.6546C7.5 10.8084 8.01268 10.0459 8.79507 9.72645L17.1286 6.31637Z" fill="#0065FF"/>
</svg>
