<svg width="40" height="40" viewBox="0 0 40 40" fill="none" xmlns="http://www.w3.org/2000/svg">
<path d="M31.6667 18.3333V13.0467C31.6667 12.1633 31.315 11.315 30.69 10.69L25.9767 5.97667C25.3517 5.35167 24.5034 5 23.62 5H11.6667C9.82504 5 8.33337 6.49167 8.33337 8.33333V31.6667C8.33337 33.5083 9.82504 35 11.6667 35H18.3334" stroke="#0065FF" stroke-width="2.5" stroke-linecap="round" stroke-linejoin="round"/>
<path d="M31.6667 13.3333H25C24.08 13.3333 23.3334 12.5867 23.3334 11.6667V5" stroke="#0065FF" stroke-width="2.5" stroke-linecap="round" stroke-linejoin="round"/>
<path fill-rule="evenodd" clip-rule="evenodd" d="M28.5767 34.5117L34.51 28.5783C35.1617 27.9267 35.1617 26.8717 34.51 26.2217L31.8667 23.5783C31.215 22.9267 30.16 22.9267 29.51 23.5783L23.5767 29.5117C23.2634 29.825 23.0884 30.2483 23.0884 30.69V35H27.3984C27.84 35 28.2634 34.825 28.5767 34.5117Z" stroke="#0065FF" stroke-width="2.5" stroke-linecap="round" stroke-linejoin="round"/>
</svg>
